<?xml version="1.0" encoding="utf-8"?>
<!-- Generator: Adobe Illustrator 19.0.0, SVG Export Plug-In . SVG Version: 6.00 Build 0)  -->
<svg version="1.1" id="Layer_1" xmlns="http://www.w3.org/2000/svg" xmlns:xlink="http://www.w3.org/1999/xlink" x="0px" y="0px"
	 viewBox="519 443.9 370.4 532.1" style="enable-background:new 519 443.9 370.4 532.1;" xml:space="preserve">
<style type="text/css">
	.st0{fill:#03B8D4;}
	.st1{fill:#00A6B7;}
	.st2{fill:#EB8B83;}
	.st3{fill:#D86862;}
	.st4{fill:#EDC47B;}
	.st5{fill:#ECA452;}
	.st6{fill:#FAFAFA;}
	.st7{fill:#FFFFFF;}
	.st8{fill:#D6DFE4;}
</style>
<g>
	<g>
		<g>
			<g>
				<path class="st0" d="M554.9,806l-27.6-0.2c0.3-39.1,9.8-72.6,27.2-96.7c20.1-27.7,50.4-42.4,87.4-42.4v27.6
					C564.2,694.4,555.2,772.5,554.9,806z"/>
			</g>
			<path class="st1" d="M554.9,806c0.3-33.6,9.3-111.6,87-111.6v-15c-32.1,1.2-58.4,14.7-76.2,39.1c-15.9,21.9-24.5,52.1-25.2,87.4
				L554.9,806z"/>
			<path class="st0" d="M528.6,843.9l14.4-30.6c-8.4-3.9-18.4-0.2-22.3,8.2C516.7,829.9,520.2,839.8,528.6,843.9z"/>
			<path class="st0" d="M554,843.9l-14.4-30.6c8.4-3.9,18.4-0.2,22.3,8.2C565.9,829.9,562.3,839.8,554,843.9z"/>
			<rect x="521.9" y="804.2" class="st1" width="37.9" height="14"/>
		</g>
		<g>
			<g>
				<path class="st0" d="M853.6,806l27.6-0.2c-0.3-39.1-9.8-72.6-27.2-96.7c-20.1-27.7-50.4-42.4-87.4-42.4v27.6
					C844.2,694.4,853.3,772.5,853.6,806z"/>
			</g>
			<path class="st1" d="M853.6,806c-0.3-33.6-9.3-111.6-87-111.6v-15c32.1,1.2,58.4,14.7,76.2,39.1c15.9,21.9,24.5,52.1,25.2,87.4
				L853.6,806z"/>
			<path class="st0" d="M879.9,843.9l-14.4-30.6c8.4-3.9,18.4-0.2,22.3,8.2C891.8,829.9,888.2,839.8,879.9,843.9z"/>
			<path class="st0" d="M854.5,843.9l14.4-30.6c-8.4-3.9-18.4-0.2-22.3,8.2C842.5,829.9,846.1,839.8,854.5,843.9z"/>
			<rect x="848.6" y="804.2" class="st1" width="37.9" height="14"/>
		</g>
	</g>
	<g>
		<circle class="st2" cx="625.2" cy="530.9" r="32.4"/>
		<circle class="st3" cx="783.2" cy="530.9" r="32.4"/>
	</g>
	<rect x="610.3" y="661.9" class="st4" width="187.9" height="187.9"/>
	<rect x="704.2" y="661.9" class="st5" width="94" height="187.9"/>
	<circle class="st4" cx="751.2" cy="716.1" r="32.4"/>
	<path class="st5" d="M772,716.1c0,11.5-9.3,20.8-20.8,20.8s-20.8-9.3-20.8-20.8s9.3-20.8,20.8-20.8
		C762.7,695.4,772,704.7,772,716.1z"/>
	<circle class="st4" cx="751.2" cy="799" r="32.4"/>
	<rect x="657.2" y="630.3" class="st2" width="94" height="31.3"/>
	<rect x="704.2" y="630.3" class="st3" width="47" height="31.3"/>
	<path class="st4" d="M798.1,536.6c-0.6-51.3-42.4-92.7-93.9-92.7s-93.3,41.4-93.9,92.7h-0.1v95.1h187.9V536.6L798.1,536.6z"/>
	<path class="st5" d="M704.2,443.9v187.8h94v-95.1h-0.1C797.5,485.3,755.7,443.9,704.2,443.9z"/>
	<path class="st0" d="M566.7,975.7h64.8c-0.2-17.8-14.6-32.1-32.4-32.1C581.3,943.6,566.9,957.9,566.7,975.7z"/>
	<path class="st1" d="M776.6,975.7h64.8c-0.1-17.8-14.6-32.1-32.4-32.1C791.2,943.6,776.8,957.9,776.6,975.7z"/>
	<path class="st2" d="M690.3,524.3c0,17.9-14.5,32.4-32.4,32.4s-32.4-14.5-32.4-32.4s14.5-32.4,32.4-32.4S690.3,506.4,690.3,524.3z"
		/>
	<path class="st0" d="M783.6,524.3c0,17.9-14.5,32.4-32.4,32.4s-32.4-14.5-32.4-32.4s14.5-32.4,32.4-32.4S783.6,506.4,783.6,524.3z"
		/>
	<path class="st3" d="M658.2,491.9v64.8c17.8-0.1,32.1-14.6,32.1-32.4C690.3,506.5,675.9,492,658.2,491.9z"/>
	<path class="st1" d="M751.7,491.9v64.8c17.8-0.1,32.1-14.6,32.1-32.4C783.8,506.5,769.5,492,751.7,491.9z"/>
	<path class="st0" d="M683.1,524.3c0,13.9-11.3,25.2-25.2,25.2s-25.2-11.3-25.2-25.2s11.3-25.2,25.2-25.2S683.1,510.3,683.1,524.3z"
		/>
	<path class="st3" d="M776.4,524.3c0,13.9-11.3,25.2-25.2,25.2S726,538.2,726,524.3s11.3-25.2,25.2-25.2
		C765.2,499.1,776.4,510.3,776.4,524.3z"/>
	<circle class="st6" cx="657.9" cy="524.3" r="13.8"/>
	<circle class="st6" cx="751.2" cy="524.3" r="13.8"/>
	<path class="st5" d="M690.3,716.1c0-17.9-14.5-32.4-32.4-32.4s-32.4,14.5-32.4,32.4c0,0.6,0,1.2,0,1.7l0,0v82.9l0,0
		c0.9,17.1,15,30.7,32.3,30.7s31.4-13.6,32.3-30.7l0,0v-82.8l0,0C690.3,717.3,690.3,716.7,690.3,716.1z"/>
	<g>
		<rect x="625.6" y="716.4" class="st1" width="64.6" height="6.1"/>
		<rect x="625.6" y="729.1" class="st1" width="64.6" height="6.1"/>
		<rect x="625.6" y="741.8" class="st1" width="64.6" height="6.1"/>
		<rect x="625.6" y="754.5" class="st1" width="64.6" height="6.1"/>
		<rect x="625.6" y="767.3" class="st1" width="64.6" height="6.1"/>
		<rect x="625.6" y="780" class="st1" width="64.6" height="6.1"/>
		<rect x="625.6" y="792.7" class="st1" width="64.6" height="6.1"/>
	</g>
	<path class="st7" d="M763.7,799c0,6.9-5.6,12.5-12.5,12.5s-12.5-5.6-12.5-12.5s5.6-12.5,12.5-12.5
		C758.1,786.5,763.7,792.1,763.7,799z"/>
	<path class="st3" d="M758.2,799c0,3.8-3.1,7-7,7s-7-3.1-7-7s3.1-7,7-7S758.2,795.2,758.2,799z"/>
	<path class="st2" d="M813.5,975.9l-14.7-126h-72.5h-7.1h-29.5h-9.5h-70.1l-14.7,126h94.3v-95.6c1.3-7,7.5-12.3,14.8-12.3
		c7.1,0,13,4.9,14.6,11.5V976h94.4V975.9z"/>
	<path class="st3" d="M704.6,849.9V868l0,0c7.1,0,13,4.9,14.6,11.5V976h94.3l-14.7-126L704.6,849.9L704.6,849.9z"/>
	<g>
		<path class="st0" d="M704.2,617c-25.2,0-47.2-13-53.4-31.7c-2.3-7,1.5-14.5,8.4-16.8s14.5,1.5,16.8,8.4
			c2.2,6.7,13.4,13.5,28.2,13.5c14.9,0,26-6.9,28.2-13.5c2.3-7,9.8-10.7,16.8-8.4c6.9,2.3,10.7,9.8,8.4,16.8
			C751.4,604,729.5,617,704.2,617z"/>
	</g>
	<path class="st1" d="M704.2,617c25.2,0,47.2-13,53.4-31.7c2.3-7-1.5-14.5-8.4-16.8c-7-2.3-14.5,1.5-16.8,8.4
		c-2.2,6.7-13.4,13.5-28.2,13.5V617z"/>
	<g>
		<g id="XMLID_17_">
			<path id="XMLID_18_" class="st6" d="M704.2,609.2c-21.9,0-40.8-10.8-46-26.3c-0.9-2.8,0.6-5.9,3.4-6.9c0.6-0.2,1.1-0.3,1.7-0.3
				c2.3,0,4.4,1.5,5.2,3.7c3.6,10.9,18.6,18.9,35.7,18.9c17,0,32-7.9,35.7-18.9c0.7-2.2,2.8-3.7,5.2-3.7c0.6,0,1.2,0.1,1.7,0.3
				c1.4,0.5,2.5,1.4,3.1,2.7s0.8,2.8,0.3,4.1C745.1,598.4,726.1,609.2,704.2,609.2z"/>
		</g>
	</g>
	<path class="st8" d="M704.2,598.3v10.9c21.9,0,40.8-10.8,46-26.3c0.5-1.4,0.4-2.8-0.3-4.1s-1.8-2.3-3.1-2.7
		c-0.6-0.2-1.1-0.3-1.7-0.3c-2.3,0-4.4,1.5-5.2,3.7C736.3,590.4,721.3,598.3,704.2,598.3z"/>
</g>
</svg>
